<?xml version="1.0" encoding="UTF-8"?> <svg xmlns="http://www.w3.org/2000/svg" width="510" height="210" viewBox="0 0 510 210"><defs><style>.cls-1{fill:#fff;}.cls-2{fill:#002d72;}</style></defs><g id="Citco"><path class="cls-1" d="M98.16,142.13V151H411.83v-8.91Zm60.21,6.93H98.9v-4.94h59.47Zm126.36,0H225.26v-4.94h59.47Zm126.36,0H351.62v-4.94h59.47Z"></path><path class="cls-2" d="M32,141.8v9.57H478V141.8Zm66.9,7.26v-4.94h59.47v4.94Zm126.36,0v-4.94h59.47v4.94Zm185.83,0H351.62v-4.94h59.47Z"></path><path class="cls-2" d="M183.85,113c-7.72-.86-10.43.39-10.43-6.87V67.64c0-7.26,2.71-6,10.43-6.86V59.57H154.66v1.21c7.73.85,10.43-.4,10.43,6.86v38.49c0,7.26-2.7,6-10.43,6.87v1.21h29.19Z"></path><path class="cls-2" d="M229.47,61.25h8.32v44.88c0,7.26-2.48,6-10.21,6.87v1.21h28.75V113c-7.73-.86-10.21.39-10.21-6.87V61.25h8.32c7.47,0,11,6,13.8,11.15h1l-3.43-12.83H218.07L214.63,72.4h1c2.83-5.15,6.33-11.15,13.8-11.15Z"></path><path class="cls-2" d="M328.35,115.14a58.19,58.19,0,0,0,16.74-2.34c2.4-.7,4-1,4-2.73l3-12.21h-1.12c-3.1,7-8.83,15.67-20.6,15.67-17.51,0-25.77-12-25.69-27.58.09-14,7.82-25.7,23.87-25.7,14.87,0,19.11,9.56,19.4,16.6H349V64.33c0-1.36-.55-2.23-3.35-3a48,48,0,0,0-16.48-2.66c-23.09,0-34.34,15.92-34.34,27.95,0,20.92,15.88,28.56,33.48,28.56Z"></path><path class="cls-2" d="M99,115.14a58.33,58.33,0,0,0,16.75-2.34c2.4-.7,3.94-1,3.94-2.73l3-12.21h-1.11c-3.1,7-8.83,15.67-20.61,15.67-17.51,0-25.77-12-25.68-27.58.08-14,7.81-25.7,23.87-25.7,14.87,0,19.11,9.56,19.4,16.6h1.11V64.33c0-1.36-.54-2.23-3.34-3a48.09,48.09,0,0,0-16.49-2.66c-23.09,0-34.34,15.92-34.34,27.95,0,20.92,15.89,28.56,33.48,28.56Z"></path><path class="cls-2" d="M417.79,58.92C400,57.11,384.41,68,382.7,84.76c-1.54,15.07,10,28.4,26.27,30.07,18.89,1.93,33.73-10,35.4-26.44C445.61,76.43,436.32,60.81,417.79,58.92ZM434.4,89.73c-1.06,10.41-7.07,25.35-23,23.73-11-1.13-20.5-12.95-18.57-31.74,1.07-10.56,8.36-22.86,22.89-21.38C426.16,61.4,436.3,71.17,434.4,89.73Z"></path></g></svg> 