<svg id="OUTLINED" xmlns="http://www.w3.org/2000/svg" width="153.5" height="88.979" viewBox="0 0 153.5 88.979">
  <path id="Path_723" data-name="Path 723" d="M4.819.24H0V74.018a18.5,18.5,0,0,1,4.819.642V4.648h6.693V.24Z" transform="translate(0 -0.035)" fill="#002a3a"/>
  <path id="Path_724" data-name="Path 724" d="M4.819,79.05V52.192A16.863,16.863,0,0,0,0,51.49V83.963H4.819v-.094h6.693V79.05Z" transform="translate(0 -7.42)" fill="#78be20"/>
  <path id="Path_725" data-name="Path 725" d="M170.3,74.179a22.529,22.529,0,0,1-1.036,6.736,3.907,3.907,0,0,0-5.435,4,3.866,3.866,0,0,0,1.8,2.9,22.257,22.257,0,1,1,4.682-13.634" transform="translate(-18.121 -7.479)" fill="#78be20"/>
  <path id="Path_726" data-name="Path 726" d="M79.127,85.523a9.734,9.734,0,0,1-6.453-2.431.369.369,0,0,1-.077-.531l1.267-1.772a.334.334,0,0,1,.5-.077,8.643,8.643,0,0,0,4.887,1.926c1.849,0,3.672-.787,3.672-2.508,0-1.823-1.9-2.277-4.1-2.73-2.662-.556-6.145-1.772-6.145-5.538,0-3.518,3.115-5.033,6.753-5.033a9.894,9.894,0,0,1,5.948,2,.331.331,0,0,1,.1.5l-1.215,1.746c-.128.205-.325.205-.531.077A8.662,8.662,0,0,0,79.213,69.7c-2.174,0-3.441.856-3.441,2.225,0,1.618,1.618,2.054,3.843,2.559,2.961.659,6.453,1.618,6.453,5.615s-3.244,5.443-6.933,5.443" transform="translate(-10.45 -9.631)" fill="#002a3a"/>
  <path id="Path_727" data-name="Path 727" d="M98.388,85.275a.5.5,0,0,1-.479-.231l-3.894-5.11a.105.105,0,0,0-.163-.009l-.762.787a.219.219,0,0,0-.034.077v4a.488.488,0,0,1-.488.488h-1.96a.488.488,0,0,1-.488-.488V67.678a.488.488,0,0,1,.488-.488h1.96a.488.488,0,0,1,.488.488V76.9a.109.109,0,0,0,.188.077l4.262-4.622a.5.5,0,0,1,.454-.18h2.61c.325,0,.4.205.205.428l-4.819,5.118s-.043.1,0,.146l5.358,6.958c.18.248.1.454-.231.454H98.405Z" transform="translate(-12.987 -9.682)" fill="#002a3a"/>
  <path id="Path_728" data-name="Path 728" d="M105.969,70.993a1.655,1.655,0,0,1-1.669-1.669,1.6,1.6,0,0,1,1.369-1.618,1.706,1.706,0,0,1,1.926,1.926A1.6,1.6,0,0,1,105.978,71" transform="translate(-15.03 -9.754)" fill="#002a3a"/>
  <path id="Path_729" data-name="Path 729" d="M104.887,86.114a.342.342,0,0,1-.377-.377V73.361a.335.335,0,0,1,.377-.351h2.2a.316.316,0,0,1,.351.351V85.737a.328.328,0,0,1-.351.377Z" transform="translate(-15.061 -10.521)" fill="#002a3a"/>
  <path id="Path_730" data-name="Path 730" d="M114.748,85.573c-2.73,0-4.228-1.823-4.228-4.913v-13.1a.332.332,0,0,1,.377-.377h2.174a.332.332,0,0,1,.377.377v13.01c0,1.669.531,2.328,1.669,2.328.308,0,.633-.026.959-.051a.332.332,0,0,1,.377.377v1.874c0,.205-.077.377-.274.4a12.514,12.514,0,0,1-1.446.077" transform="translate(-15.927 -9.681)" fill="#002a3a"/>
  <path id="Path_731" data-name="Path 731" d="M122.888,85.573c-2.73,0-4.228-1.823-4.228-4.913v-13.1a.332.332,0,0,1,.377-.377h2.174a.332.332,0,0,1,.377.377v13.01c0,1.669.531,2.328,1.669,2.328.308,0,.633-.026.959-.051a.332.332,0,0,1,.377.377v1.874c0,.205-.077.377-.274.4a12.514,12.514,0,0,1-1.446.077" transform="translate(-17.1 -9.681)" fill="#002a3a"/>
  <path id="Path_732" data-name="Path 732" d="M130.447,86.373A.332.332,0,0,1,130.07,86V74.408a.464.464,0,0,1,.274-.454,12.9,12.9,0,0,1,5.033-.984c3.492,0,5.871,1.618,5.871,5.666V86c0,.257-.128.377-.351.377h-2.2a.342.342,0,0,1-.377-.377V78.687c0-2.379-1.087-3.09-2.936-3.09a10.773,10.773,0,0,0-2.379.274V86a.332.332,0,0,1-.377.377h-2.174Z" transform="translate(-18.744 -10.515)" fill="#fff"/>
  <path id="Path_733" data-name="Path 733" d="M156.331,80.286c0,.231-.128.351-.377.351H148.26v.71c0,1.541,1.061,2.328,2.679,2.328a5.9,5.9,0,0,0,3.569-1.164.337.337,0,0,1,.5.077l1.036,1.4a.334.334,0,0,1-.077.531,7.972,7.972,0,0,1-5.135,1.746c-2.859,0-5.546-1.566-5.546-4.938V77.727c0-3.723,2.782-5.187,5.563-5.187s5.469,1.472,5.469,5.187v2.559Zm-5.469-5.161a2.333,2.333,0,0,0-2.61,2.585v.659h5.212V77.71a2.372,2.372,0,0,0-2.6-2.585" transform="translate(-20.937 -10.453)" fill="#fff"/>
  <path id="Path_734" data-name="Path 734" d="M165.069,82.987c.231,0,.633-.026,1.036-.051.257,0,.4.128.4.351v1.926a.368.368,0,0,1-.351.4c-.428.026-.959.051-1.344.051-2.628,0-4.682-1.344-4.682-4.682V69.421c0-.231.128-.351.377-.351h1.926a.36.36,0,0,1,.377.325l.231,3.038h2.7a.336.336,0,0,1,.377.351v1.849a.335.335,0,0,1-.377.351h-2.679v5.794c0,1.4.71,2.2,2,2.2" transform="translate(-23.076 -9.953)" fill="#fff"/>
  <path id="Path_735" data-name="Path 735" d="M175.67,85.736a21.611,21.611,0,0,1-3.646,6.9,3.911,3.911,0,0,1,3.638-6.9" transform="translate(-24.527 -12.309)" fill="#fff"/>
  <path id="Path_736" data-name="Path 736" d="M174.831,93.289a4.006,4.006,0,0,1-2.491-.591,21.681,21.681,0,0,0,3.638-6.9,3.923,3.923,0,0,1-1.147,7.5" transform="translate(-24.835 -12.364)" fill="#002a3a"/>
  <path id="Path_737" data-name="Path 737" d="M34.1,0a.306.306,0,0,1,.334.334V2.157a.3.3,0,0,1-.334.308H29.619v13.1c0,.223-.111.334-.308.334H27.265c-.2,0-.308-.111-.308-.334V2.474H22.464a.3.3,0,0,1-.334-.308V.334A.306.306,0,0,1,22.464,0H34.1Z" transform="translate(-3.189)" fill="#002a3a"/>
  <path id="Path_738" data-name="Path 738" d="M45.269,11.623c0,.2-.111.308-.334.308H38.173v.625c0,1.361.933,2.046,2.362,2.046a5.187,5.187,0,0,0,3.141-1.027.3.3,0,0,1,.445.068l.916,1.224a.3.3,0,0,1-.068.471A7.014,7.014,0,0,1,40.45,16.87c-2.516,0-4.87-1.378-4.87-4.339V9.372c0-3.27,2.448-4.562,4.9-4.562s4.81,1.292,4.81,4.562v2.251Zm-4.81-4.536a2.049,2.049,0,0,0-2.294,2.268v.582h4.588V9.355A2.082,2.082,0,0,0,40.459,7.087Z" transform="translate(-5.127 -0.693)" fill="#002a3a"/>
  <path id="Path_739" data-name="Path 739" d="M54.251,16.87c-3.115,0-4.981-1.78-4.981-4.493V9.286c0-2.713,1.892-4.476,4.964-4.476A6.752,6.752,0,0,1,57.88,5.88a.311.311,0,0,1,.086.471L57.1,7.686a.326.326,0,0,1-.471.086,4.718,4.718,0,0,0-2.337-.642c-1.583,0-2.448.779-2.448,2.157V12.4c0,1.378.89,2.157,2.422,2.157a4.789,4.789,0,0,0,2.585-.8c.2-.111.359-.111.471.086l.933,1.335a.285.285,0,0,1-.068.445,6.527,6.527,0,0,1-3.937,1.25Z" transform="translate(-7.1 -0.693)" fill="#002a3a"/>
  <path id="Path_740" data-name="Path 740" d="M67.1,4.117c2.713,0,4.853,1.446,4.853,5.033v6.428c0,.223-.111.334-.308.334H69.712a.306.306,0,0,1-.334-.334V9.209c0-2.14-.89-2.782-2.533-2.782a5.132,5.132,0,0,0-2.14.4v8.747a.3.3,0,0,1-.334.334H62.454a.3.3,0,0,1-.334-.334V.334A.3.3,0,0,1,62.454,0h1.917A.3.3,0,0,1,64.7.334v4.16a7.345,7.345,0,0,1,2.405-.377Z" transform="translate(-8.952)" fill="#002a3a"/>
  <path id="Path_741" data-name="Path 741" d="M85.742,15.577c0,.223-.111.334-.308.334H83.388c-.2,0-.308-.111-.308-.334V.334c0-.223.111-.334.308-.334h2.046c.2,0,.308.111.308.334Z" transform="translate(-11.972)" fill="#002a3a"/>
  <path id="Path_742" data-name="Path 742" d="M90.364,16.6a.3.3,0,0,1-.334-.334V6.077a.413.413,0,0,1,.248-.4A11.394,11.394,0,0,1,94.7,4.81c3.073,0,5.161,1.421,5.161,4.981V16.27c0,.223-.111.334-.308.334H97.622a.306.306,0,0,1-.334-.334V9.843c0-2.088-.959-2.713-2.585-2.713a8.891,8.891,0,0,0-2.088.248v8.9a.3.3,0,0,1-.334.334H90.364Z" transform="translate(-12.974 -0.693)" fill="#002a3a"/>
  <path id="Path_743" data-name="Path 743" d="M111.559.334A.3.3,0,0,1,111.893,0h1.917a.3.3,0,0,1,.334.334V15a.349.349,0,0,1-.248.377,13.99,13.99,0,0,1-4.493.8c-2.936,0-5.093-1.515-5.093-4.9V8.833a4.542,4.542,0,0,1,4.853-4.716,6.141,6.141,0,0,1,2.405.488V.334Zm-2.088,13.574a6.55,6.55,0,0,0,2.088-.308V6.993a3.812,3.812,0,0,0-2.14-.582c-1.6,0-2.516.736-2.516,2.422v2.474c0,1.917.959,2.6,2.559,2.6Z" transform="translate(-15.032)" fill="#002a3a"/>
  <path id="Path_744" data-name="Path 744" d="M128.392,5.12a.3.3,0,0,1,.334.308V15.622a.4.4,0,0,1-.248.4,11.07,11.07,0,0,1-4.365.89c-3.03,0-5.093-1.446-5.093-5.007V5.428c0-.2.111-.308.334-.308h1.934a.28.28,0,0,1,.308.308v6.428c0,2.088.933,2.739,2.516,2.739a6.741,6.741,0,0,0,2.028-.265V5.437a.28.28,0,0,1,.308-.308h1.934Z" transform="translate(-17.151 -0.738)" fill="#002a3a"/>
  <path id="Path_745" data-name="Path 745" d="M137.552,16.867a7.6,7.6,0,0,1-4.519-1.446c-.2-.111-.2-.265-.086-.445l.847-1.446c.111-.2.248-.223.445-.086a5.748,5.748,0,0,0,3.364,1.138c1.164,0,2.071-.445,2.071-1.292,0-.89-1.07-1.138-2.071-1.31-1.669-.308-4.493-1-4.493-3.7,0-2.474,2.337-3.492,4.716-3.492a7.923,7.923,0,0,1,3.869,1.027.287.287,0,0,1,.111.445l-.847,1.421a.328.328,0,0,1-.445.111,6.054,6.054,0,0,0-2.824-.736c-1.31,0-2.028.488-2.028,1.224,0,.916,1,1.138,2.474,1.421,1.823.334,4.143.916,4.143,3.475s-2.046,3.7-4.716,3.7Z" transform="translate(-19.148 -0.69)" fill="#002a3a"/>
  <path id="Path_746" data-name="Path 746" d="M150.661,14.089c.2,0,.556-.026.916-.043.223,0,.359.111.359.308v1.695a.328.328,0,0,1-.308.359c-.377.026-.847.043-1.181.043-2.311,0-4.117-1.181-4.117-4.117V2.158c0-.2.111-.308.334-.308h1.695a.321.321,0,0,1,.334.291l.2,2.67h2.379a.3.3,0,0,1,.334.308V6.746a.3.3,0,0,1-.334.308h-2.362v5.093c0,1.224.625,1.934,1.755,1.934Z" transform="translate(-21.087 -0.267)" fill="#002a3a"/>
  <path id="Path_747" data-name="Path 747" d="M155.474,16.6a.3.3,0,0,1-.334-.334V6.034a.36.36,0,0,1,.248-.377,9.067,9.067,0,0,1,3.894-.847,13.86,13.86,0,0,1,2.268.18.309.309,0,0,1,.291.334v1.6c0,.2-.137.308-.359.265a12.4,12.4,0,0,0-1.806-.086,5.712,5.712,0,0,0-1.96.308V16.27a.3.3,0,0,1-.334.334h-1.917Z" transform="translate(-22.357 -0.693)" fill="#002a3a"/>
  <path id="Path_748" data-name="Path 748" d="M172.111,5.438c0-.2.111-.308.334-.308h1.917c.223,0,.334.111.334.308V15.923c0,3.424-1.558,5.187-4.964,5.187a6.361,6.361,0,0,1-4.365-1.4.285.285,0,0,1-.068-.445l.959-1.361c.111-.18.265-.223.419-.111a5.237,5.237,0,0,0,3.03,1.027c1.532,0,2.516-.668,2.422-2.893a8.2,8.2,0,0,1-2.379.4,4.488,4.488,0,0,1-4.759-4.536V5.447a.3.3,0,0,1,.334-.308h1.934a.28.28,0,0,1,.308.308v6.231c0,1.712,1.2,2.311,2.533,2.311a4.151,4.151,0,0,0,2-.445V5.438Z" transform="translate(-23.776 -0.739)" fill="#002a3a"/>
  <path id="Path_749" data-name="Path 749" d="M22.262,42.911c-.248,0-.334-.137-.265-.377l5.341-15.269A.355.355,0,0,1,27.7,27H30.23a.355.355,0,0,1,.359.265L35.93,42.534c.068.248-.043.377-.265.377H33.482a.356.356,0,0,1-.377-.265l-1.087-3.364H25.925l-1.087,3.364a.375.375,0,0,1-.377.265H22.279Zm4.408-6.051h4.588l-2.251-6.924H28.92Z" transform="translate(-3.167 -3.891)" fill="#002a3a"/>
  <path id="Path_750" data-name="Path 750" d="M43.835,43.176c-2.405,0-3.715-1.6-3.715-4.314V27.334A.3.3,0,0,1,40.454,27h1.917a.3.3,0,0,1,.334.334V38.769c0,1.472.471,2.046,1.472,2.046.265,0,.556-.026.847-.043a.3.3,0,0,1,.334.334v1.643c0,.18-.068.334-.248.359a11.545,11.545,0,0,1-1.267.068Z" transform="translate(-5.782 -3.891)" fill="#002a3a"/>
  <path id="Path_751" data-name="Path 751" d="M51.815,43.176c-2.405,0-3.715-1.6-3.715-4.314V27.334A.3.3,0,0,1,48.434,27h1.917a.3.3,0,0,1,.334.334V38.769c0,1.472.471,2.046,1.472,2.046.265,0,.556-.026.847-.043a.3.3,0,0,1,.334.334v1.643c0,.18-.068.334-.248.359a11.545,11.545,0,0,1-1.267.068Z" transform="translate(-6.931 -3.891)" fill="#002a3a"/>
  <path id="Path_752" data-name="Path 752" d="M57.442,29.809a1.456,1.456,0,0,1-1.472-1.472,1.429,1.429,0,0,1,1.472-1.446,1.459,1.459,0,0,1,0,2.919ZM56.466,42.9a.306.306,0,0,1-.334-.334V31.683a.3.3,0,0,1,.334-.308H58.4a.28.28,0,0,1,.308.308V42.561c0,.223-.111.334-.308.334Z" transform="translate(-8.066 -3.875)" fill="#002a3a"/>
  <path id="Path_753" data-name="Path 753" d="M66.7,31.81c2.756,0,4.63,1.378,4.63,4.519v6.5a.381.381,0,0,1-.248.377,15.921,15.921,0,0,1-4.476.668c-2.585,0-4.964-.933-4.964-3.715,0-2.422,2.028-3.561,4.87-3.561a16.734,16.734,0,0,1,2.225.18v-.419c0-1.583-.582-2.251-2.225-2.251a5.768,5.768,0,0,0-2.85.71.293.293,0,0,1-.445-.086l-.89-1.361c-.111-.18-.111-.291,0-.377A7.666,7.666,0,0,1,66.69,31.81Zm-.086,9.817a10.359,10.359,0,0,0,2.14-.265V38.845a16.9,16.9,0,0,0-2.157-.18c-1.669,0-2.337.556-2.337,1.472,0,1.044,1,1.489,2.362,1.489Z" transform="translate(-8.883 -4.584)" fill="#002a3a"/>
  <path id="Path_754" data-name="Path 754" d="M76.484,43.6a.3.3,0,0,1-.334-.334V33.077a.413.413,0,0,1,.248-.4,11.394,11.394,0,0,1,4.425-.864c3.073,0,5.161,1.421,5.161,4.981V43.27c0,.223-.111.334-.308.334H83.742a.306.306,0,0,1-.334-.334V36.843c0-2.088-.959-2.713-2.585-2.713a8.892,8.892,0,0,0-2.088.248v8.9a.3.3,0,0,1-.334.334H76.484Z" transform="translate(-10.974 -4.584)" fill="#002a3a"/>
  <path id="Path_755" data-name="Path 755" d="M95.441,43.87c-3.115,0-4.981-1.78-4.981-4.493v-3.09c0-2.713,1.892-4.476,4.964-4.476a6.752,6.752,0,0,1,3.646,1.07.311.311,0,0,1,.086.471l-.864,1.335a.326.326,0,0,1-.471.086,4.718,4.718,0,0,0-2.337-.642c-1.583,0-2.448.779-2.448,2.157V39.4c0,1.378.89,2.157,2.422,2.157a4.789,4.789,0,0,0,2.585-.8c.2-.111.359-.111.471.086l.933,1.335a.285.285,0,0,1-.068.445A6.527,6.527,0,0,1,95.441,43.87Z" transform="translate(-13.036 -4.584)" fill="#002a3a"/>
  <path id="Path_756" data-name="Path 756" d="M112.379,38.623c0,.2-.111.308-.334.308h-6.762v.625c0,1.361.933,2.046,2.362,2.046a5.187,5.187,0,0,0,3.141-1.027.3.3,0,0,1,.445.068l.916,1.224a.3.3,0,0,1-.068.471,7.014,7.014,0,0,1-4.519,1.532c-2.516,0-4.87-1.378-4.87-4.339V36.372c0-3.27,2.448-4.562,4.9-4.562s4.81,1.292,4.81,4.562v2.251Zm-4.81-4.536a2.049,2.049,0,0,0-2.294,2.268v.582h4.588v-.582A2.082,2.082,0,0,0,107.569,34.087Z" transform="translate(-14.798 -4.584)" fill="#002a3a"/>
</svg>
