<?xml version="1.0" encoding="UTF-8" standalone="no"?>
<!DOCTYPE svg PUBLIC "-//W3C//DTD SVG 1.1//EN" "http://www.w3.org/Graphics/SVG/1.1/DTD/svg11.dtd">
<svg width="100%" height="100%" viewBox="0 0 520 420" version="1.1" xmlns="http://www.w3.org/2000/svg" xmlns:xlink="http://www.w3.org/1999/xlink" xml:space="preserve" xmlns:serif="http://www.serif.com/" style="fill-rule:evenodd;clip-rule:evenodd;stroke-linejoin:round;stroke-miterlimit:2;">
    <g id="Artboard1" transform="matrix(1,0,0,1,0,-43.83537)">
        <rect x="0" y="43.835" width="519.344" height="419.005" style="fill:none;"/>
        <g id="freepik--Floor--inject-4" transform="matrix(1,0,0,1,0,0.83537)">
            <path id="freepik--floor--inject-4" d="M105.08,426.24C189.08,469.18 325.27,469.18 409.26,426.24C493.25,383.3 493.26,313.66 409.26,270.72C325.26,227.78 189.08,227.72 105.08,270.72C21.08,313.72 21.08,383.29 105.08,426.24Z" style="fill:rgb(245,245,245);fill-rule:nonzero;"/>
        </g>
        <g id="freepik--Shadows--inject-4" transform="matrix(1,0,0,1,0,0.83537)">
            <path id="freepik--Shadow--inject-4" d="M151.57,425C150.292,425.016 149.032,424.703 147.91,424.09L115.67,405.48C114.205,404.76 113.273,403.263 113.273,401.63C113.273,399.997 114.205,398.5 115.67,397.78L206.51,345.36L188.78,335.12C186.2,333.63 186.42,331.54 186.55,330.94C186.68,330.34 187.33,328.34 190.3,328.04L287.69,318.11L288.35,318.11C290.499,318.089 292.515,319.174 293.68,320.98C294.152,321.72 294.276,322.631 294.02,323.47L277,379C276.422,381.1 274.499,382.567 272.32,382.57C271.414,382.565 270.524,382.324 269.74,381.87L249.02,369.87L155.24,424C154.125,424.648 152.86,424.993 151.57,425Z" style="fill:rgb(224,224,224);fill-rule:nonzero;"/>
            <ellipse id="freepik--shadow--inject-4" cx="403.41" cy="359.47" rx="47.48" ry="25.81" style="fill:rgb(224,224,224);"/>
        </g>
        <g id="freepik--Plants--inject-4" transform="matrix(1,0,0,1,0,0.83537)">
            <g id="freepik--plants--inject-4">
                <path d="M418,333.29C418,333.29 418.42,323.52 422.71,315.65C427,307.78 433.3,302.65 439.45,301.7C445.6,300.75 450.99,306.11 444.65,310.48C438.31,314.85 426.84,319.67 422.46,334.67L418,333.29Z" style="fill:rgb(80,67,155);fill-rule:nonzero;"/>
                <path d="M418,333.29C418,333.29 418.42,323.52 422.71,315.65C427,307.78 433.3,302.65 439.45,301.7C445.6,300.75 450.99,306.11 444.65,310.48C438.31,314.85 426.84,319.67 422.46,334.67L418,333.29Z" style="fill-opacity:0.15;fill-rule:nonzero;"/>
                <path d="M419.63,330.65L419.56,330.65C419.425,330.606 419.332,330.479 419.332,330.336C419.332,330.3 419.338,330.264 419.35,330.23C424.74,313.7 436.69,306.12 442.26,304.42C442.293,304.409 442.327,304.404 442.361,304.404C442.505,304.404 442.632,304.501 442.67,304.64C442.722,304.813 442.622,304.997 442.45,305.05C437,306.72 425.29,314.17 419.98,330.44C419.921,330.577 419.779,330.662 419.63,330.65Z" style="fill:white;fill-rule:nonzero;"/>
                <path d="M452.83,328.49C452.33,329.88 450.92,330.68 449.59,331.32C448.26,331.96 446.83,332.66 446.18,333.98C444.88,336.65 447.57,340.08 446.18,342.69C445.492,343.735 444.409,344.457 443.18,344.69C442.18,344.95 441.18,345.02 440.12,345.18C439.63,345.205 439.14,345.205 438.65,345.18C437.203,344.956 435.721,345.22 434.44,345.93C432.44,347.22 432.04,349.83 430.94,351.93C429.559,354.407 427.16,356.159 424.38,356.72C423.215,357.04 421.985,357.04 420.82,356.72L420.61,356.61C420.472,356.485 420.342,356.351 420.22,356.21L420.22,356.15C419.76,354.85 420.22,353.42 420.22,352.05C420.225,351.967 420.225,351.883 420.22,351.8C420.05,350.21 419.9,348.63 419.75,347.04C419.47,344.107 419.233,341.177 419.04,338.25C418.93,336.34 418.55,334.25 419.23,332.42C419.98,330.42 422.23,330.19 422.9,328.2C423.18,327.4 423.3,326.56 423.57,325.76C424.413,323.386 426.507,321.665 429,321.3C432.86,320.82 436.56,323.72 440.4,323.16C441.39,322.954 442.368,322.694 443.33,322.38C446.42,321.58 450.11,322.21 452.06,324.74C452.936,325.777 453.227,327.192 452.83,328.49Z" style="fill:rgb(80,67,155);fill-rule:nonzero;"/>
                <g opacity="0.07">
                    <path d="M452.83,328.49C452.33,329.88 450.92,330.68 449.59,331.32C448.26,331.96 446.83,332.66 446.18,333.98C444.88,336.65 447.57,340.08 446.18,342.69C445.492,343.735 444.409,344.457 443.18,344.69C442.178,344.949 441.153,345.113 440.12,345.18C439.63,345.205 439.14,345.205 438.65,345.18C437.203,344.956 435.721,345.22 434.44,345.93C432.44,347.22 432.04,349.83 430.94,351.93C429.559,354.407 427.16,356.159 424.38,356.72C423.215,357.04 421.985,357.04 420.82,356.72L420.61,356.61C420.549,356.582 420.494,356.541 420.45,356.49C420.357,356.411 420.279,356.317 420.22,356.21L420.22,356.15C419.62,355.09 420.22,353.24 420.22,352.05C420.225,351.967 420.225,351.883 420.22,351.8C420.05,350.21 419.9,348.63 419.75,347.04C419.47,344.107 419.233,341.177 419.04,338.25C418.93,336.34 418.55,334.25 419.23,332.42C419.98,330.42 422.23,330.19 422.9,328.2C423.18,327.4 423.3,326.56 423.57,325.76C424.413,323.386 426.507,321.665 429,321.3C432.86,320.82 436.56,323.72 440.4,323.16C441.39,322.954 442.368,322.694 443.33,322.38C446.42,321.58 450.11,322.21 452.06,324.74C452.936,325.777 453.227,327.192 452.83,328.49Z" style="fill:rgb(38,50,56);fill-rule:nonzero;"/>
                </g>
                <path d="M419.39,350.07C419.214,350.03 419.099,349.857 419.13,349.68C423,329.23 444,324.84 449,324.85C449.181,324.85 449.33,324.999 449.33,325.18C449.33,325.361 449.181,325.51 449,325.51C444.14,325.51 423.65,329.8 419.8,349.81C419.777,349.967 419.642,350.084 419.483,350.084C419.452,350.084 419.42,350.079 419.39,350.07Z" style="fill:white;fill-rule:nonzero;"/>
                <path d="M442.17,338.25C442.105,338.238 442.043,338.211 441.99,338.17C437.79,335.036 432.403,333.935 427.31,335.17C427.133,335.201 426.96,335.086 426.92,334.91C426.883,334.735 426.995,334.56 427.17,334.52C432.475,333.257 438.075,334.428 442.43,337.71C442.493,337.772 442.528,337.857 442.528,337.945C442.528,338.033 442.493,338.118 442.43,338.18C442.356,338.236 442.262,338.261 442.17,338.25Z" style="fill:white;fill-rule:nonzero;"/>
            </g>
        </g>
        <g id="freepik--Clouds--inject-4" transform="matrix(1,0,0,1,0,0.83537)">
            <g id="freepik--clouds--inject-4">
                <path id="freepik--Cloud--inject-4" d="M153.13,65.1L144.26,70.22C144.303,69.831 144.326,69.441 144.33,69.05L144.33,66.48C144.33,61.91 141.12,60.05 137.16,62.34C135.46,63.39 134.004,64.791 132.89,66.45C132.24,60.7 127.73,58.56 122.26,61.72C116.33,65.14 111.53,73.46 111.53,80.3L111.53,84.14C111.492,85.673 111.803,87.195 112.44,88.59L105.07,92.84C102.716,94.366 101.228,96.929 101.07,99.73C101.07,102.27 102.85,103.29 105.07,102.03L153.13,74.28C155.484,72.759 156.972,70.198 157.13,67.4C157.1,64.86 155.32,63.83 153.13,65.1Z" style="fill:rgb(235,235,235);fill-rule:nonzero;"/>
                <path id="freepik--cloud--inject-4" d="M190,87.94L183.5,91.7C183.531,91.414 183.548,91.127 183.55,90.84L183.55,89C183.55,85.65 181.2,84.29 178.3,86C177.05,86.762 175.979,87.786 175.16,89C174.69,84.79 171.38,83.22 167.37,85.54C162.733,88.561 159.809,93.624 159.51,99.15L159.51,101.97C159.482,103.092 159.708,104.207 160.17,105.23L154.77,108.35C153.065,109.462 151.985,111.318 151.86,113.35C151.86,115.21 153.16,115.96 154.77,115.03L190,94.68C191.718,93.558 192.801,91.679 192.91,89.63C192.88,87.77 191.58,87 190,87.94Z" style="fill:rgb(235,235,235);fill-rule:nonzero;"/>
            </g>
        </g>
        <g id="freepik--Arrow--inject-4" transform="matrix(1,0,0,1,0,0.83537)">
            <path d="M291.73,308.39L291.73,315C291.66,317.467 291.298,319.918 290.65,322.3L274.54,374.97C274.365,375.618 273.977,376.188 273.44,376.59C272.485,377.287 271.192,377.323 270.2,376.68L249.07,364.48L154.81,418.9C153.814,419.43 152.699,419.699 151.57,419.68C150.453,419.704 149.348,419.442 148.36,418.92L118.26,401.53C116.339,400.287 115.125,398.195 115,395.91L115,389.3C115.052,388.165 115.397,387.063 116,386.1C116.551,385.107 117.346,384.271 118.31,383.67L200.38,336.3L191.44,331.14C189.521,329.896 188.311,327.804 188.19,325.52L188.19,319C188.204,317.867 188.672,316.785 189.49,316C190.138,315.352 190.989,314.946 191.9,314.85L288,305C289.247,304.854 290.475,305.424 291.17,306.47C291.544,307.04 291.739,307.708 291.73,308.39Z" style="fill:rgb(80,67,155);fill-rule:nonzero;"/>
            <path d="M151.57,406.65L151.57,419.65C150.453,419.674 149.348,419.412 148.36,418.89L118.26,401.5C116.339,400.257 115.125,398.165 115,395.88L115,389.3C115.052,388.165 115.397,387.063 116,386.1L151.57,406.65Z" style="fill-opacity:0.1;fill-rule:nonzero;"/>
            <path d="M212.51,329.27L200.33,336.27L191.39,331.11C189.472,329.86 188.263,327.766 188.14,325.48L188.14,319C188.149,317.866 188.619,316.782 189.44,316L212.51,329.27Z" style="fill-opacity:0.1;fill-rule:nonzero;"/>
            <path d="M273.44,364.45L273.44,376.55C272.487,377.252 271.19,377.288 270.2,376.64L249.07,364.45L249.07,350.38L273.44,364.45Z" style="fill-opacity:0.1;fill-rule:nonzero;"/>
            <path d="M249.07,350.38L249.07,364.45L154.81,418.86C153.814,419.39 152.699,419.659 151.57,419.64L151.57,406.64L249.07,350.38Z" style="fill-opacity:0.2;fill-rule:nonzero;"/>
            <path d="M291.73,308.39L291.73,315C291.66,317.467 291.298,319.918 290.65,322.3L274.54,374.97C274.365,375.618 273.977,376.188 273.44,376.59L273.44,364.44L291.16,306.44C291.544,307.017 291.743,307.697 291.73,308.39Z" style="fill-opacity:0.2;fill-rule:nonzero;"/>
        </g>
        <g id="freepik--Gears--inject-4" transform="matrix(1,0,0,1,0,0.83537)">
            <path d="M374.89,108.37L346.31,91.87C346.035,86.813 344.938,81.834 343.06,77.13C348.753,76.338 354.554,77.342 359.65,80L360.28,80.37C368.49,85.11 373.88,94.76 374.89,108.37Z" style="fill:rgb(80,67,155);fill-rule:nonzero;"/>
            <path d="M374.89,108.37L346.31,91.87C346.035,86.813 344.938,81.834 343.06,77.13C348.753,76.338 354.554,77.342 359.65,80L360.28,80.37C368.49,85.11 373.88,94.76 374.89,108.37Z" style="fill-opacity:0.3;fill-rule:nonzero;"/>
            <path d="M370.71,112.64C370.391,112.563 370.056,112.599 369.76,112.74L359.06,117.56C358.888,117.643 358.699,117.686 358.508,117.686C357.933,117.686 357.427,117.296 357.28,116.74C356.86,115.39 349.53,113.83 348.93,112.67L353,102.46L370.71,112.64Z" style="fill:rgb(69,90,100);fill-rule:nonzero;"/>
            <path d="M353.05,102.49C352.759,102.337 352.411,102.337 352.12,102.49L344.22,84.21C344.581,83.456 344.306,82.541 343.59,82.11L335.85,77.65C335.125,77.235 334.191,77.45 333.72,78.14L324.83,91.51C324.271,92.231 323.412,92.658 322.5,92.67C321.465,92.643 320.429,92.69 319.4,92.81L319.4,83L313.46,79.57C313.135,79.419 312.753,79.453 312.46,79.66L300.46,86.6C299.67,87.111 299.137,87.939 299,88.87L297.8,102.24C297.664,103.186 297.225,104.064 296.55,104.74C294.168,106.945 291.936,109.307 289.87,111.81C289.276,112.464 288.359,112.724 287.51,112.48L279.8,109.78C278.979,109.524 278.082,109.859 277.63,110.59L268.79,125.89C268.387,126.648 268.548,127.589 269.18,128.17L275.37,133.51C276.013,134.119 276.247,135.049 275.97,135.89C274.832,138.926 273.903,142.037 273.19,145.2C272.943,146.123 272.402,146.941 271.65,147.53L260.65,155.26C259.92,155.837 259.472,156.701 259.42,157.63L259.42,171.51C259.396,171.861 259.56,172.2 259.85,172.4L273.76,180.4L268.69,190.63C268.326,191.38 268.602,192.296 269.32,192.72L288.24,203.72C288.965,204.135 289.899,203.92 290.37,203.23L298.97,194.43C298.974,194.766 299.147,195.079 299.43,195.26L317.05,205.43L317.52,191.63C317.52,191.63 313.8,186.82 313.87,185.99L333.08,165.07C333.899,165.332 334.797,165 335.25,164.27L344.09,148.97C344.493,148.212 344.332,147.271 343.7,146.69L352.21,119.59C352.939,119.018 353.385,118.156 353.43,117.23L353.05,102.49ZM306.48,160.88C301.32,163.88 297.06,164.49 293.96,163.05C290.32,161.36 319.83,110.78 322.96,113.54C325.47,115.77 326.83,119.91 326.83,125.7C326.79,138.66 317.69,154.4 306.48,160.88Z" style="fill:rgb(38,50,56);fill-rule:nonzero;"/>
            <path d="M356,91L353.61,95.83L345.93,104.69L336.88,99.46L324.2,92.13C324.455,91.971 324.673,91.76 324.84,91.51L333.73,78.15C334.196,77.468 335.114,77.246 335.84,77.64L343.6,82.12L355.37,88.91C356.085,89.337 356.359,90.249 356,91Z" style="fill:rgb(69,90,100);fill-rule:nonzero;"/>
            <path d="M272.49,146.68C272.27,147.007 271.996,147.295 271.68,147.53L260.68,155.26C260.372,155.501 260.114,155.8 259.92,156.14L278.39,166.82L293,158.53L272.49,146.68Z" style="fill:rgb(69,90,100);fill-rule:nonzero;"/>
            <path d="M279.1,109.7C278.506,109.752 277.971,110.082 277.66,110.59L268.82,125.89C268.624,126.25 268.554,126.665 268.62,127.07L288,138.27L300.1,121.9L279.1,109.7Z" style="fill:rgb(69,90,100);fill-rule:nonzero;"/>
            <path d="M331.13,89.8L331.13,94.2L320.43,100.38L299.23,88.13C299.478,87.513 299.911,86.989 300.47,86.63L312.47,79.69C312.651,79.58 312.858,79.518 313.07,79.51C313.199,79.508 313.326,79.539 313.44,79.6L319.23,82.93L319.38,83.02L327.38,87.64L331.13,89.8Z" style="fill:rgb(69,90,100);fill-rule:nonzero;"/>
            <path d="M371.15,127.43L371.15,113.55C371.156,113.507 371.16,113.463 371.16,113.42C371.16,112.931 370.758,112.53 370.27,112.53C370.1,112.53 369.933,112.578 369.79,112.67L359.09,117.49C358.918,117.572 358.731,117.615 358.54,117.615C357.962,117.615 357.453,117.22 357.31,116.66C356.727,114.805 355.924,113.026 354.92,111.36C354.477,110.566 354.418,109.612 354.76,108.77L361.89,94.39C362.251,93.636 361.976,92.721 361.26,92.29L353.52,87.82C352.792,87.412 351.861,87.63 351.39,88.32L342.5,101.69C341.945,102.415 341.083,102.841 340.17,102.84C338.227,102.807 336.286,103.005 334.39,103.43C334.278,103.461 334.163,103.477 334.047,103.477C333.385,103.477 332.828,102.96 332.78,102.3L331.61,90.62C331.61,90.611 331.61,90.601 331.61,90.592C331.61,90.098 331.204,89.692 330.71,89.692C330.511,89.692 330.318,89.758 330.16,89.88L318.16,96.82C317.384,97.327 316.863,98.143 316.73,99.06L315.52,112.44C315.384,113.386 314.945,114.264 314.27,114.94C311.888,117.145 309.656,119.507 307.59,122.01C306.996,122.664 306.079,122.924 305.23,122.68L297.5,120C296.682,119.742 295.785,120.073 295.33,120.8L286.49,136.11C286.087,136.868 286.248,137.809 286.88,138.39L293.07,143.73C293.713,144.339 293.947,145.269 293.67,146.11C292.532,149.146 291.603,152.257 290.89,155.42C290.643,156.343 290.102,157.161 289.35,157.75L278.35,165.48C277.62,166.057 277.172,166.921 277.12,167.85L277.12,181.73C277.115,181.769 277.112,181.808 277.112,181.847C277.112,182.341 277.519,182.747 278.012,182.747C278.181,182.747 278.347,182.7 278.49,182.61L289.19,177.79C289.362,177.707 289.551,177.664 289.742,177.664C290.317,177.664 290.823,178.054 290.97,178.61C291.547,180.471 292.35,182.254 293.36,183.92C293.803,184.714 293.862,185.668 293.52,186.51L286.39,200.89C286.01,201.64 286.278,202.568 287,203L294.74,207.47C295.468,207.883 296.402,207.664 296.87,206.97L305.76,193.61C306.317,192.892 307.171,192.465 308.08,192.45C310.027,192.493 311.972,192.295 313.87,191.86C313.979,191.831 314.091,191.816 314.204,191.816C314.867,191.816 315.425,192.33 315.48,192.99L316.65,204.67C316.649,204.683 316.649,204.695 316.649,204.708C316.649,205.202 317.055,205.608 317.549,205.608C317.749,205.608 317.942,205.542 318.1,205.42L330.1,198.48C330.878,197.971 331.4,197.15 331.53,196.23L332.74,182.86C332.876,181.914 333.315,181.036 333.99,180.36C336.369,178.155 338.598,175.793 340.66,173.29C341.254,172.63 342.178,172.369 343.03,172.62L350.74,175.32C351.561,175.572 352.455,175.238 352.91,174.51L361.75,159.2C362.152,158.445 361.991,157.507 361.36,156.93L355.17,151.59C354.527,150.981 354.293,150.051 354.57,149.21C355.7,146.168 356.629,143.054 357.35,139.89C357.603,138.97 358.142,138.153 358.89,137.56L369.89,129.83C370.644,129.257 371.106,128.377 371.15,127.43ZM324.15,171.08C312.93,177.55 303.84,172.3 303.84,159.35C303.84,146.4 312.93,130.65 324.15,124.18C335.37,117.71 344.46,122.95 344.46,135.9C344.46,148.85 335.36,164.6 324.15,171.08Z" style="fill:rgb(55,71,79);fill-rule:nonzero;"/>
            <path d="M334.35,132.88L329,129.8L328.95,129.8C326.58,128.46 323.32,128.66 319.72,130.74C312.48,134.92 306.6,145.1 306.6,153.47C306.6,157.64 308.07,160.58 310.43,161.95L315.29,164.73L316.45,162.79C317.77,162.491 319.037,161.996 320.21,161.32C327.46,157.14 333.33,146.96 333.34,138.59C333.338,137.46 333.197,136.335 332.92,135.24L334.35,132.88Z" style="fill:rgb(80,67,155);fill-rule:nonzero;"/>
            <path d="M306.6,153.45C306.6,157.63 308.07,160.56 310.43,161.93L315.29,164.71L316.45,162.77C317.769,162.469 319.037,161.974 320.21,161.3C324.375,158.69 327.758,155.003 330,150.63L311,139.63C308.314,143.755 306.793,148.531 306.6,153.45Z" style="fill-opacity:0.1;fill-rule:nonzero;"/>
            <path d="M334.35,132.88L329,129.8L328.94,129.8C326.57,128.46 323.31,128.66 319.71,130.74C316.113,132.964 313.11,136.029 310.96,139.67L329.96,150.67C332.028,146.998 333.18,142.882 333.32,138.67C333.318,137.54 333.177,136.415 332.9,135.32L334.35,132.88Z" style="fill:white;fill-opacity:0.4;fill-rule:nonzero;"/>
            <path d="M324.8,133.63C317.55,137.81 311.68,147.99 311.68,156.36C311.68,164.73 317.55,168.12 324.8,163.93C332.05,159.74 337.92,149.57 337.92,141.2C337.92,132.83 332.05,129.44 324.8,133.63Z" style="fill:rgb(80,67,155);fill-rule:nonzero;"/>
            <path d="M327.81,139.64C327.879,139.573 327.991,139.573 328.06,139.64C328.137,139.727 328.174,139.844 328.16,139.96L328.16,142.08C328.157,142.234 328.127,142.387 328.07,142.53C328.021,142.666 327.964,142.8 327.9,142.93L326.33,146.27C326.912,146.123 327.53,146.273 327.98,146.67C328.479,147.265 328.71,148.039 328.62,148.81C328.657,150.209 328.311,151.593 327.62,152.81C326.938,153.967 325.961,154.923 324.79,155.58C324.289,155.898 323.727,156.109 323.14,156.2C322.723,156.259 322.297,156.189 321.92,156C321.585,155.811 321.319,155.52 321.16,155.17C320.974,154.766 320.878,154.325 320.88,153.88C320.881,153.755 320.912,153.631 320.97,153.52C321.006,153.419 321.077,153.334 321.17,153.28L322.81,152.33C322.99,152.23 323.13,152.21 323.22,152.28L323.54,152.51C323.675,152.596 323.83,152.645 323.99,152.65C324.277,152.641 324.556,152.547 324.79,152.38C325.184,152.15 325.524,151.84 325.79,151.47C326.066,151.109 326.21,150.664 326.2,150.21C326.2,149.74 326.07,149.48 325.79,149.43C325.435,149.399 325.081,149.495 324.79,149.7L323.71,150.33C323.642,150.391 323.538,150.391 323.47,150.33C323.391,150.243 323.351,150.127 323.36,150.01L323.36,148.29C323.361,148.136 323.391,147.983 323.45,147.84C323.51,147.68 323.58,147.54 323.64,147.41L325.01,144.48L321.62,146.43C321.552,146.491 321.448,146.491 321.38,146.43C321.302,146.342 321.263,146.227 321.27,146.11L321.27,144C321.272,143.847 321.31,143.696 321.38,143.56C321.427,143.435 321.51,143.327 321.62,143.25L327.81,139.64Z" style="fill:rgb(55,71,79);fill-rule:nonzero;"/>
            <path d="M332.3,63.84L331.82,63.56C322.62,58.1 309.82,58.8 295.68,66.96C267.68,83.13 244.91,122.51 244.91,154.9C244.91,187.29 222.17,226.69 194.13,242.9C188.397,246.374 182.018,248.65 175.38,249.59C177.479,255.06 181.262,259.726 186.18,262.91L186.68,263.21C195.88,268.63 208.68,267.9 222.75,259.76C250.75,243.57 273.52,204.18 273.52,171.76C273.52,139.34 296.25,100 324.3,83.82C330.035,80.341 336.418,78.065 343.06,77.13C348.753,76.338 354.554,77.342 359.65,80L332.3,63.84Z" style="fill:rgb(80,67,155);fill-rule:nonzero;"/>
            <path d="M243.09,189.25L267.79,183.71L267.74,183.71L257.18,177.6L247.38,171.93C247.172,171.803 246.934,171.734 246.69,171.73L238.02,171.24C238.003,171.241 237.987,171.241 237.97,171.241C237.196,171.241 236.56,170.604 236.56,169.831C236.56,169.831 236.56,169.83 236.56,169.83C236.81,167.049 236.81,164.251 236.56,161.47C236.594,160.528 236.946,159.625 237.56,158.91L251.43,157.78C252.02,157.06 263.37,146.11 263.37,146.11L263.31,146.11L242.93,134.3C242.808,134.242 242.675,134.215 242.54,134.22C236.67,130.83 226.38,124.87 226.14,124.72C225.835,124.552 225.485,124.486 225.14,124.53L215.03,125.53C214.081,125.635 213.248,126.216 212.82,127.07L207.34,141.77C206.856,142.705 206.08,143.457 205.13,143.91C204.06,144.41 202.99,144.98 201.91,145.6L191.3,139.46C190.88,139.18 190.21,139.36 189.66,139.94L178.56,151.66C177.911,152.295 177.593,153.198 177.7,154.1L180.79,164.56C180.927,165.442 180.723,166.343 180.22,167.08C178.343,169.931 176.639,172.893 175.12,175.95C174.58,176.837 173.715,177.479 172.71,177.74L163.21,180.03C162.252,180.254 161.454,180.918 161.06,181.82L156.28,197.91C156.12,198.335 156.269,198.818 156.64,199.08C156.85,199.25 167.4,205.32 167.4,205.32C167.4,206.79 167.4,208.23 167.58,209.63C167.566,210.565 167.235,211.468 166.64,212.19L156.95,223.91C156.369,224.566 156.151,225.471 156.37,226.32L160.97,236.49C161.03,236.627 161.132,236.742 161.26,236.82L181.67,248.63C181.697,248.605 181.717,248.574 181.73,248.54L182.03,248.72L198.44,258.21C198.72,257.45 207.05,222.94 207.44,223.49L212.62,231.4C212.665,231.467 212.719,231.527 212.78,231.58L222.65,237.31L233.3,243.48L225.6,219.48C232.4,221.75 247.91,192.5 243.09,189.25ZM183.29,205.31L220.82,165.7C221.921,168.304 222.449,171.114 222.37,173.94C223.192,173.454 224.044,173.019 224.92,172.64C225,173.513 225.04,174.433 225.04,175.4C225.04,188.4 215.95,204.1 204.73,210.58C203.91,211.05 203.1,211.47 202.33,211.83C202.21,210.855 202.157,209.872 202.17,208.89C194.16,213.57 186.55,212.5 183.29,205.31Z" style="fill:rgb(38,50,56);fill-rule:nonzero;"/>
            <path d="M181.65,248.59L180.65,239.13L156.29,225.07C156.158,225.459 156.158,225.881 156.29,226.27L160.89,236.44C160.95,236.577 161.052,236.692 161.18,236.77L161.23,236.77L181.65,248.59Z" style="fill:rgb(69,90,100);fill-rule:nonzero;"/>
            <path d="M184.73,194.58L161.36,181.14C161.207,181.322 161.092,181.533 161.02,181.76L156.24,197.86C156.08,198.285 156.229,198.768 156.6,199.03L156.77,199.14L167.3,205.23L167.36,205.23L177.15,210.9L184.73,194.58Z" style="fill:rgb(69,90,100);fill-rule:nonzero;"/>
            <path d="M177.73,153L198.17,164.73L211.65,151.21L191.26,139.4C190.84,139.13 190.18,139.31 189.63,139.89L178.52,151.61C178.155,152.007 177.885,152.483 177.73,153Z" style="fill:rgb(69,90,100);fill-rule:nonzero;"/>
            <path d="M226.1,124.67C225.797,124.497 225.445,124.431 225.1,124.48L214.99,125.48C214.354,125.553 213.76,125.835 213.3,126.28L239.88,141.63L246.67,137.7L246.48,136.47C246.48,136.47 226.43,124.88 226.1,124.67Z" style="fill:rgb(69,90,100);fill-rule:nonzero;"/>
            <path d="M267.79,183.71L267.74,183.71C267.544,183.611 267.329,183.557 267.11,183.55L258.44,183.06C258.423,183.061 258.407,183.061 258.39,183.061C257.616,183.061 256.98,182.424 256.98,181.651C256.98,181.651 256.98,181.65 256.98,181.65C257.1,180.28 257.17,178.92 257.18,177.6C257.193,176.161 257.13,174.722 256.99,173.29C257.013,172.355 257.347,171.454 257.94,170.73L267.62,159C268.203,158.345 268.425,157.441 268.21,156.59L263.61,146.42C263.553,146.286 263.455,146.174 263.33,146.1L263.27,146.1C262.73,145.944 262.147,146.126 261.79,146.56L251.45,156C250.881,156.639 249.937,156.798 249.19,156.38C247.863,155.293 246.371,154.425 244.77,153.81C244.056,153.517 243.638,152.761 243.77,152L246.96,137.53C247.055,137.137 246.874,136.725 246.52,136.53C246.212,136.372 245.863,136.313 245.52,136.36L235.41,137.36C234.458,137.458 233.622,138.041 233.2,138.9L227.72,153.6C227.241,154.536 226.463,155.286 225.51,155.73C223.331,156.772 221.237,157.986 219.25,159.36C218.4,159.93 217.45,159.97 217.08,159.36L211.91,151.46C211.54,150.9 210.71,151.02 210.04,151.71L198.94,163.44C198.292,164.072 197.974,164.971 198.08,165.87L201.17,176.34C201.304,177.22 201.104,178.119 200.61,178.86C198.729,181.708 197.023,184.666 195.5,187.72C194.962,188.61 194.097,189.257 193.09,189.52L183.59,191.81C182.636,192.036 181.84,192.695 181.44,193.59L176.66,209.69C176.631,209.792 176.616,209.897 176.616,210.003C176.616,210.628 177.131,211.143 177.756,211.143C177.784,211.143 177.812,211.142 177.84,211.14L186.52,211.63C186.543,211.629 186.567,211.628 186.591,211.628C187.35,211.628 187.979,212.241 188,213C187.745,215.781 187.745,218.579 188,221.36C187.991,222.331 187.637,223.267 187,224L177.32,235.73C176.735,236.384 176.514,237.289 176.73,238.14L181.33,248.3C181.383,248.436 181.482,248.549 181.61,248.62C181.738,248.691 181.61,248.62 181.61,248.62C181.72,248.68 181.844,248.711 181.97,248.71C182.398,248.675 182.799,248.486 183.1,248.18L193.43,238.73C194.001,238.095 194.943,237.936 195.69,238.35C197.02,239.433 198.511,240.3 200.11,240.92C200.827,241.21 201.246,241.969 201.11,242.73L198,257.18C197.898,257.569 198.071,257.981 198.42,258.18C198.725,258.346 199.077,258.406 199.42,258.35L209.53,257.35C210.479,257.245 211.312,256.664 211.74,255.81L217.23,241.11C217.711,240.173 218.488,239.42 219.44,238.97C220.5,238.47 221.58,237.9 222.65,237.28C223.72,236.66 224.65,236.04 225.7,235.35C226.54,234.77 227.5,234.73 227.86,235.29L233.04,243.2C233.103,243.297 233.189,243.376 233.29,243.43C233.71,243.69 234.36,243.51 234.9,242.94L246,231.22C246.641,230.584 246.955,229.687 246.85,228.79L243.76,218.33C243.628,217.449 243.831,216.549 244.33,215.81C246.211,212.961 247.914,209.999 249.43,206.94C249.973,206.051 250.841,205.409 251.85,205.15L261.34,202.86C262.3,202.639 263.099,201.974 263.49,201.07L268.3,185C268.469,184.505 268.251,183.956 267.79,183.71ZM217.1,223L216.54,223.14L216.14,223.23C215.84,223.29 215.54,223.34 215.24,223.38C214.88,223.44 214.54,223.46 214.19,223.49L213.24,223.49C209.056,223.525 205.261,220.969 203.72,217.08C202.98,215.398 202.511,213.609 202.33,211.78C202.21,210.805 202.157,209.822 202.17,208.84C202.23,199.67 206.94,188.31 214.71,180.1C216.956,177.677 219.535,175.586 222.37,173.89C223.192,173.404 224.044,172.969 224.92,172.59C227.162,171.54 229.615,171.02 232.09,171.07L232.9,171.07C233.031,171.077 233.161,171.094 233.29,171.12C236.885,171.627 239.944,174.028 241.29,177.4C245.58,186.89 240.66,203.4 230.29,214.4C225.91,219.08 221.3,222 217.1,223Z" style="fill:rgb(55,71,79);fill-rule:nonzero;"/>
            <path d="M242.88,134.25L263.32,146.08" style="fill:none;fill-rule:nonzero;"/>
            <path d="M232.8,182.2L227.46,179.12C225.09,177.78 221.83,177.98 218.23,180.06C210.99,184.24 205.11,194.42 205.11,202.79C205.11,206.97 206.57,209.9 208.94,211.28L213.8,214.05L214.96,212.11C216.284,211.816 217.556,211.32 218.73,210.64C225.98,206.46 231.85,196.28 231.85,187.91C231.851,186.781 231.713,185.656 231.44,184.56L232.8,182.2Z" style="fill:rgb(80,67,155);fill-rule:nonzero;"/>
            <path d="M205.05,202.77C205.05,206.95 206.51,209.88 208.88,211.26L213.75,214.03L214.91,212.09C216.229,211.789 217.497,211.294 218.67,210.62C222.825,208.024 226.204,204.355 228.45,200L209.45,189C206.776,193.112 205.256,197.869 205.05,202.77Z" style="fill-opacity:0.1;fill-rule:nonzero;"/>
            <path d="M232.8,182.2L227.46,179.12C225.09,177.78 221.84,177.98 218.24,180.06C214.642,182.286 211.636,185.35 209.48,188.99L228.48,199.99C230.554,196.299 231.707,192.162 231.84,187.93C231.837,186.8 231.696,185.675 231.42,184.58L232.8,182.2Z" style="fill:white;fill-opacity:0.4;fill-rule:nonzero;"/>
            <path d="M223.25,183C216,187.18 210.12,197.36 210.12,205.73C210.12,214.1 216,217.49 223.25,213.31C230.5,209.13 236.37,198.95 236.37,190.58C236.37,182.21 230.5,178.76 223.25,183Z" style="fill:rgb(80,67,155);fill-rule:nonzero;"/>
            <path d="M226.79,192.89C226.793,193.281 226.766,193.673 226.71,194.06C226.655,194.466 226.568,194.867 226.45,195.26C226.311,195.702 226.147,196.136 225.96,196.56C225.75,197.01 225.5,197.48 225.21,197.99L223.39,201.16L226.65,199.27C226.724,199.215 226.826,199.215 226.9,199.27C226.974,199.359 227.01,199.474 227,199.59L227,201.71C227.001,201.862 226.966,202.013 226.9,202.15C226.85,202.276 226.763,202.384 226.65,202.46L219.79,206.46C219.716,206.515 219.614,206.515 219.54,206.46C219.466,206.371 219.43,206.256 219.44,206.14L219.44,204.42C219.443,204.188 219.47,203.957 219.52,203.73C219.582,203.479 219.683,203.239 219.82,203.02L223.7,196.5C223.955,196.105 224.147,195.674 224.27,195.22C224.345,194.926 224.386,194.624 224.39,194.32C224.398,194.197 224.398,194.073 224.39,193.95C224.374,193.803 224.322,193.663 224.24,193.54C224.169,193.417 224.049,193.329 223.91,193.3C223.705,193.273 223.497,193.327 223.33,193.45C223.098,193.583 222.897,193.764 222.74,193.98C222.599,194.176 222.482,194.387 222.39,194.61C222.305,194.802 222.245,195.003 222.21,195.21L222.12,195.63C222.081,195.953 221.886,196.236 221.6,196.39L220,197.31C219.943,197.361 219.857,197.361 219.8,197.31C219.737,197.235 219.708,197.137 219.72,197.04C219.733,196.434 219.81,195.83 219.95,195.24C220.104,194.584 220.329,193.947 220.62,193.34C220.921,192.716 221.297,192.132 221.74,191.6C222.18,191.063 222.716,190.612 223.32,190.27C223.772,189.978 224.293,189.809 224.83,189.78C225.234,189.779 225.625,189.925 225.93,190.19C226.246,190.495 226.477,190.878 226.6,191.3C226.74,191.818 226.804,192.354 226.79,192.89Z" style="fill:rgb(55,71,79);fill-rule:nonzero;"/>
            <path d="M175.38,249.57C173.002,243.462 171.853,236.943 172,230.39C172,214.39 166.47,203.11 157.49,197.72L156.58,197.19C151.486,194.538 145.686,193.548 140,194.36C142.38,200.465 143.536,206.979 143.4,213.53C143.4,229.64 149.01,240.98 158.11,246.33L186.22,262.89C181.287,259.712 177.489,255.046 175.38,249.57Z" style="fill:rgb(80,67,155);fill-rule:nonzero;"/>
            <path d="M175.38,249.57C173.002,243.462 171.853,236.943 172,230.39C172,214.39 166.47,203.11 157.49,197.72L156.58,197.19C151.486,194.538 145.686,193.548 140,194.36C142.38,200.465 143.536,206.979 143.4,213.53C143.4,229.64 149.01,240.98 158.11,246.33L186.22,262.89C181.287,259.712 177.489,255.046 175.38,249.57Z" style="fill-opacity:0.3;fill-rule:nonzero;"/>
            <path d="M167.81,229.79C167.493,229.704 167.155,229.736 166.86,229.88L156.16,234.7C155.988,234.783 155.799,234.826 155.608,234.826C155.033,234.826 154.527,234.436 154.38,233.88C153.96,232.53 146.63,230.98 146.03,229.82L150.14,219.6L167.81,229.79Z" style="fill:rgb(69,90,100);fill-rule:nonzero;"/>
            <path d="M150.15,219.64C149.859,219.487 149.511,219.487 149.22,219.64L141.32,201.36C141.679,200.609 141.405,199.697 140.69,199.27L133,194.77C132.272,194.362 131.341,194.58 130.87,195.27L121.98,208.64C121.419,209.357 120.56,209.78 119.65,209.79C118.614,209.767 117.578,209.817 116.55,209.94L116.55,200.16L110.61,196.74C110.285,196.589 109.903,196.623 109.61,196.83L97.61,203.77C96.82,204.266 96.28,205.079 96.13,206L94.93,219.38C94.792,220.323 94.354,221.196 93.68,221.87C91.298,224.096 89.067,226.478 87,229C86.409,229.658 85.489,229.919 84.64,229.67L76.93,226.98C76.111,226.715 75.21,227.047 74.76,227.78L65.92,243C65.517,243.758 65.678,244.699 66.31,245.28L72.5,250.61C73.143,251.219 73.377,252.149 73.1,252.99C71.962,256.03 71.033,259.144 70.32,262.31C70.07,263.232 69.53,264.049 68.78,264.64L57.78,272.37C57.05,272.943 56.602,273.804 56.55,274.73L56.55,288.61C56.526,288.961 56.69,289.3 56.98,289.5L70.89,297.5L65.82,307.74C65.456,308.49 65.732,309.406 66.45,309.83L85.37,320.83C86.098,321.238 87.029,321.02 87.5,320.33L96.1,311.54C96.107,311.873 96.28,312.18 96.56,312.36L114.18,322.53L114.65,308.73C114.65,308.73 111,304 111,303.14L130.21,282.22C131.028,282.474 131.922,282.145 132.38,281.42L141.22,266.11C141.623,265.352 141.462,264.411 140.83,263.83L149.34,236.74C150.062,236.162 150.506,235.303 150.56,234.38L150.15,219.64ZM103.58,278C98.42,281 94.16,281.62 91.06,280.18C87.42,278.48 116.93,227.9 120.06,230.66C122.57,232.9 123.93,237.04 123.93,242.83C123.89,255.8 114.79,271.55 103.58,278Z" style="fill:rgb(38,50,56);fill-rule:nonzero;"/>
            <path d="M131.64,249.37L126.3,246.29C123.93,244.95 120.68,245.15 117.08,247.23C109.83,251.41 103.95,261.59 103.95,269.96C103.95,274.14 105.42,277.07 107.79,278.45L112.65,281.22L113.81,279.28C115.13,278.987 116.398,278.494 117.57,277.82C124.82,273.63 130.7,263.45 130.7,255.08C130.695,253.951 130.558,252.827 130.29,251.73L131.64,249.37Z" style="fill:rgb(80,67,155);fill-rule:nonzero;"/>
            <path d="M103.9,269.94C103.9,274.12 105.36,277.05 107.72,278.43L112.58,281.2L113.74,279.26C115.06,278.963 116.328,278.467 117.5,277.79C121.658,275.179 125.034,271.492 127.27,267.12L108.27,256.12C105.594,260.248 104.083,265.024 103.9,269.94Z" style="fill-opacity:0.1;fill-rule:nonzero;"/>
            <path d="M131.64,249.37L126.3,246.29L126.25,246.29C123.88,244.95 120.63,245.15 117.03,247.23C113.43,249.453 110.423,252.518 108.27,256.16L127.27,267.16C129.344,263.469 130.497,259.332 130.63,255.1C130.625,253.971 130.488,252.847 130.22,251.75L131.64,249.37Z" style="fill:white;fill-opacity:0.4;fill-rule:nonzero;"/>
            <path d="M122.09,250.12C114.84,254.31 108.97,264.48 108.97,272.85C108.97,281.22 114.84,284.61 122.09,280.43C129.34,276.25 135.22,266.07 135.22,257.7C135.22,249.33 129.34,245.94 122.09,250.12Z" style="fill:rgb(80,67,155);fill-rule:nonzero;"/>
            <path d="M118.26,264.8C118.187,264.691 118.162,264.558 118.19,264.43C118.212,264.277 118.259,264.128 118.33,263.99L121.13,259.08C121.19,258.96 121.28,258.82 121.38,258.65C121.463,258.507 121.58,258.387 121.72,258.3L123.31,257.38C123.378,257.319 123.482,257.319 123.55,257.38C123.631,257.466 123.671,257.583 123.66,257.7L123.66,270.62C123.656,270.773 123.618,270.923 123.55,271.06C123.506,271.184 123.422,271.29 123.31,271.36L121.61,272.36C121.541,272.427 121.429,272.427 121.36,272.36C121.284,272.276 121.248,272.163 121.26,272.05L121.26,263.31L119.71,266C119.656,266.114 119.564,266.206 119.45,266.26C119.365,266.297 119.264,266.262 119.22,266.18L118.26,264.8Z" style="fill:rgb(55,71,79);fill-rule:nonzero;"/>
            <path d="M153.09,208.12L150.7,213L143,221.81L134,216.58L121.32,209.25C121.575,209.091 121.793,208.88 121.96,208.63L130.85,195.27C131.316,194.588 132.234,194.366 132.96,194.76L140.72,199.24L152.46,206C153.191,206.429 153.468,207.362 153.09,208.12Z" style="fill:rgb(69,90,100);fill-rule:nonzero;"/>
            <path d="M69.59,263.82C69.37,264.15 69.096,264.441 68.78,264.68L57.78,272.41C57.467,272.646 57.208,272.946 57.02,273.29L75.51,284L90.09,275.71L69.59,263.82Z" style="fill:rgb(69,90,100);fill-rule:nonzero;"/>
            <path d="M76.2,226.85C75.608,226.898 75.073,227.225 74.76,227.73L65.92,243C65.724,243.36 65.653,243.775 65.72,244.18L85.07,255.37L97.17,239.01L76.2,226.85Z" style="fill:rgb(69,90,100);fill-rule:nonzero;"/>
            <path d="M128.23,206.94L128.23,211.34L117.53,217.52L96.33,205.27C96.578,204.653 97.011,204.129 97.57,203.77L109.57,196.83C109.751,196.72 109.958,196.658 110.17,196.65C110.299,196.648 110.426,196.679 110.54,196.74L116.33,200.07L116.48,200.16L124.48,204.78L128.23,206.94Z" style="fill:rgb(69,90,100);fill-rule:nonzero;"/>
            <path d="M168.25,244.57L168.25,230.69C168.256,230.647 168.26,230.603 168.26,230.56C168.26,230.071 167.858,229.67 167.37,229.67C167.2,229.67 167.033,229.718 166.89,229.81L156.19,234.63C156.018,234.713 155.829,234.756 155.638,234.756C155.063,234.756 154.557,234.366 154.41,233.81C153.822,231.95 153.013,230.167 152,228.5C151.557,227.706 151.498,226.752 151.84,225.91L159,211.53C159.359,210.779 159.085,209.867 158.37,209.44L150.62,205C149.892,204.587 148.958,204.806 148.49,205.5L139.6,218.86C139.041,219.581 138.182,220.008 137.27,220.02C135.326,219.977 133.385,220.175 131.49,220.61C131.381,220.639 131.269,220.654 131.156,220.654C130.493,220.654 129.935,220.14 129.88,219.48L128.71,207.8C128.711,207.784 128.711,207.767 128.711,207.751C128.711,207.262 128.31,206.861 127.821,206.861C127.617,206.861 127.419,206.931 127.26,207.06L115.26,214C114.481,214.503 113.958,215.321 113.83,216.24L112.62,229.61C112.484,230.556 112.045,231.434 111.37,232.11C108.99,234.317 106.759,236.679 104.69,239.18C104.099,239.838 103.179,240.099 102.33,239.85L94.62,237.16C93.801,236.895 92.9,237.227 92.45,237.96L83.61,253.27C83.208,254.025 83.369,254.963 84,255.54L90.19,260.88C90.833,261.489 91.067,262.419 90.79,263.26C89.648,266.289 88.716,269.393 88,272.55C87.75,273.472 87.21,274.289 86.46,274.88L75.46,282.61C74.724,283.19 74.278,284.064 74.24,285L74.24,298.88C74.234,298.922 74.231,298.965 74.231,299.008C74.231,299.502 74.637,299.908 75.131,299.908C75.3,299.908 75.466,299.86 75.61,299.77L86.31,294.94C86.482,294.858 86.669,294.815 86.86,294.815C87.438,294.815 87.947,295.21 88.09,295.77C88.669,297.627 89.472,299.407 90.48,301.07C90.926,301.867 90.985,302.825 90.64,303.67L83.51,318C83.146,318.75 83.422,319.666 84.14,320.09L91.88,324.56C92.608,324.968 93.539,324.75 94.01,324.06L102.9,310.69C103.459,309.976 104.313,309.553 105.22,309.54C107.161,309.589 109.101,309.407 111,309C111.109,308.971 111.221,308.956 111.334,308.956C111.997,308.956 112.555,309.47 112.61,310.13L113.78,321.81C113.78,321.819 113.78,321.829 113.78,321.838C113.78,322.332 114.186,322.738 114.68,322.738C114.879,322.738 115.072,322.672 115.23,322.55L127.23,315.61C128.007,315.105 128.529,314.288 128.66,313.37L129.9,300C130.038,299.054 130.476,298.178 131.15,297.5C133.532,295.301 135.76,292.942 137.82,290.44C138.411,289.776 139.338,289.514 140.19,289.77L147.9,292.46C148.718,292.714 149.612,292.385 150.07,291.66L158.91,276.35C159.313,275.592 159.152,274.651 158.52,274.07L152.33,268.74C151.689,268.13 151.455,267.201 151.73,266.36C152.858,263.317 153.786,260.204 154.51,257.04C154.757,256.117 155.298,255.299 156.05,254.71L167.05,246.98C167.78,246.389 168.219,245.509 168.25,244.57ZM121.25,288.22C110.03,294.7 100.94,289.45 100.94,276.5C100.94,263.55 110.03,247.8 121.25,241.32C132.47,234.84 141.56,240.1 141.56,253.05C141.56,266 132.46,281.75 121.25,288.22Z" style="fill:rgb(55,71,79);fill-rule:nonzero;"/>
            <path d="M156.55,197.19C151.464,194.544 145.676,193.554 140,194.36C133.355,195.295 126.968,197.571 121.23,201.05C94.59,216.43 72.75,252.75 70.63,284.11L42,267.26C44.11,235.9 66,199.57 92.61,184.19C106.46,176.19 119.01,175.35 128.17,180.45L129.25,181.09L156.55,197.19Z" style="fill:rgb(80,67,155);fill-rule:nonzero;"/>
        </g>
        <g id="freepik--Character--inject-4" transform="matrix(1,0,0,1,0,0.83537)">
            <g transform="matrix(-1,-0,0,-1,804.36,324.14)">
                <path d="M399.84,144L419.84,144L419.84,165.25C419.84,173.479 413.069,180.25 404.84,180.25L399.46,180.25C391.231,180.25 384.46,173.479 384.46,165.25C384.46,165.25 384.46,159.32 384.46,159.32C384.46,150.916 391.376,144 399.78,144C399.8,144 399.82,144 399.84,144Z" style="fill:rgb(38,50,56);fill-rule:nonzero;"/>
            </g>
            <path d="M417.52,145.84L414.93,148.15C414.591,147.822 414.399,147.37 414.399,146.899C414.399,145.944 415.185,145.159 416.139,145.159C416.68,145.159 417.191,145.411 417.52,145.84Z" style="fill:rgb(38,50,56);fill-rule:nonzero;"/>
            <path d="M418.18,149.2L414.78,148.47C414.983,147.537 415.917,146.937 416.85,147.14C417.646,147.305 418.222,148.012 418.222,148.824C418.222,148.951 418.208,149.077 418.18,149.2Z" style="fill:rgb(38,50,56);fill-rule:nonzero;"/>
            <path d="M384,352.16C381.95,354.325 379.697,356.288 377.27,358.02C376.881,358.273 376.559,358.616 376.33,359.02C376.02,359.68 375.52,361.31 378.53,362.36C381.61,363.433 385.01,363.108 387.83,361.47C390.3,359.92 390.41,356.7 392.74,354.87C394.47,353.51 396.63,353.16 398.03,351.38C399.03,350.14 398.75,348.49 398.24,346.45C397.69,344.23 397.43,342.54 396.7,342.71L396.82,343.71C395.9,345.17 391.13,345.61 389.01,344.6C387.474,347.206 385.802,349.73 384,352.16Z" style="fill:rgb(38,50,56);fill-rule:nonzero;"/>
            <path d="M381.92,354.24C382.64,353.58 383.34,352.91 384.01,352.17C385.425,350.343 386.724,348.429 387.9,346.44C388.719,345.234 389.104,343.784 388.99,342.33L388.4,336.85L395.95,336.31L396.83,343.72C397.01,345.39 395.62,346.88 393.17,349C390.72,351.12 387.59,356.06 385.36,357.3C383.13,358.54 381.55,358.49 380.6,357.86C379.65,357.23 379.53,356.69 381.92,354.24Z" style="fill:rgb(255,168,167);fill-rule:nonzero;"/>
            <path d="M412.73,352.84L412.73,351.7C412.28,353.03 410.2,358.76 407.06,361.63C404.55,363.92 401.14,366.56 400.27,369.1C399.4,371.64 405.02,372.64 407.36,372.22C410.08,371.74 413.59,370.22 415.51,367.85C416.85,366.2 417.71,364.24 418.67,362.94C419.63,361.64 421.84,360.19 422.36,358.68C422.65,357.85 422.31,356.05 421.91,354.52C421.51,352.99 421.14,351.57 420.66,351.7L420.66,352.57C419.52,353.462 418.107,353.935 416.66,353.91C415.53,354 412.72,353.72 412.73,352.84Z" style="fill:rgb(38,50,56);fill-rule:nonzero;"/>
            <path d="M404.79,363.64C405.57,362.95 406.35,362.27 407.06,361.64C409.26,359.64 410.93,356.23 411.9,353.91C412.443,352.583 412.725,351.164 412.73,349.73L412.73,345.2L420.66,345.2L420.66,352.76C420.28,354.41 416.66,358.76 414.57,361.65C413.18,363.57 410.57,366.01 407.4,366.43C404.38,366.85 402.85,365.91 404.79,363.64Z" style="fill:rgb(255,168,167);fill-rule:nonzero;"/>
            <path d="M419.08,229.51C425.24,242.95 418.86,290.28 418.86,290.28C419.05,292.46 421.54,296.75 422.47,306.35C423.57,317.69 420.75,346.16 420.75,346.16C418.301,347.576 415.304,347.696 412.75,346.48C410.196,345.264 405.18,303.6 403.75,292.32C402.51,282.48 400.13,259.32 400.13,259.32L393.36,292.23C393.36,292.23 395.95,297.89 396.36,302.09C397,308.72 396.36,337.44 396.36,337.44C396.36,337.44 393.65,339.5 388.45,338.74C388.45,338.74 379.65,298.74 378.95,290.74C378.54,285.98 383.95,227.53 383.95,227.53L419.08,229.51Z" style="fill:rgb(55,71,79);fill-rule:nonzero;"/>
            <path d="M400.12,259.36L398.12,248.36C398.12,248.36 389.67,246.61 385.84,243.01C388.489,246.112 391.953,248.413 395.84,249.65L398.09,259.25L394.16,288.35L400.12,259.36Z" style="fill:rgb(38,50,56);fill-rule:nonzero;"/>
            <path d="M429.11,223.67C429.05,222.79 427.4,213.38 426.26,208.12L415.2,211.51L417.2,221.19L426.52,228.67C429.4,228.09 429.17,224.55 429.11,223.67Z" style="fill:rgb(255,168,167);fill-rule:nonzero;"/>
            <path d="M375.62,203.83L370.39,213.42L378.52,220.39L385.97,208.58L375.62,203.83Z" style="fill:rgb(242,143,143);fill-rule:nonzero;"/>
            <path d="M395.23,182.47C390.05,182.53 384.34,184.41 382.38,188.47L374.27,205.19C374.27,205.19 378.85,211.9 386.12,211.43L395.23,182.47Z" style="fill:rgb(80,67,155);fill-rule:nonzero;"/>
            <path d="M395.23,182.47C390.05,182.53 384.34,184.41 382.38,188.47L374.27,205.19C374.27,205.19 378.85,211.9 386.12,211.43L395.23,182.47Z" style="fill-opacity:0.1;fill-rule:nonzero;"/>
            <path d="M408.23,182.83C412.811,183.945 416.647,187.082 418.65,191.35C420.094,194.557 420.227,198.206 419.02,201.51L413.52,217.41C413.52,217.41 416.1,223.63 419.08,229.51C405.29,237.21 388.08,233.16 383.92,227.51C383.75,226.31 383.98,220.94 383.65,214.83C383.29,208.31 382.4,200.96 383.42,196.93C385.32,189.45 388.89,182.43 395.98,182.43L408.23,182.83Z" style="fill:rgb(80,67,155);fill-rule:nonzero;"/>
            <path d="M410.28,182.83C414.99,183.5 421.9,184.45 424.28,195.63C426.69,206.97 427.39,210.91 427.39,210.91C427.39,210.91 423.52,215.41 415.72,215.37L413.29,206.78L410.28,182.83Z" style="fill:rgb(80,67,155);fill-rule:nonzero;"/>
            <path d="M415.05,213C415.05,213 413.46,207.95 412.49,203.84C412.479,208.159 412.908,212.468 413.77,216.7L415.05,213Z" style="fill-opacity:0.1;fill-rule:nonzero;"/>
            <path d="M390.33,151.1C388.46,152.21 386.16,156.9 386.39,166.73C386.58,175.06 389.28,177.12 390.64,177.73C392,178.34 394.64,177.96 397.15,177.54L397.15,182.54C397.15,182.54 393.64,186.62 393.86,188.91C394.08,191.2 398.93,191.75 402.22,189.51C404.352,187.977 406.179,186.061 407.61,183.86L407.61,171.75C408.217,172.493 409.128,172.925 410.088,172.925C410.838,172.925 411.564,172.661 412.14,172.18C414.95,170.31 415.05,165.7 413.42,164.04C411.79,162.38 408.27,162.91 407.61,165.2C407.61,165.2 403.56,165.35 398.16,162.38C393.904,160.086 390.991,155.89 390.33,151.1Z" style="fill:rgb(255,168,167);fill-rule:nonzero;"/>
            <path d="M395.69,164.63C395.689,164.647 395.689,164.663 395.689,164.68C395.689,165.254 396.161,165.726 396.735,165.726C397.29,165.726 397.753,165.284 397.78,164.73C397.781,164.713 397.781,164.697 397.781,164.68C397.781,164.106 397.309,163.634 396.735,163.634C396.18,163.634 395.717,164.076 395.69,164.63Z" style="fill:rgb(38,50,56);fill-rule:nonzero;"/>
            <path d="M395.41,171.7L392.98,172.47C393.121,173.015 393.617,173.4 394.18,173.4C394.309,173.4 394.437,173.379 394.56,173.34C395.235,173.113 395.613,172.382 395.41,171.7Z" style="fill:rgb(242,143,143);fill-rule:nonzero;"/>
            <path d="M387.1,161.42L389.22,159.95C388.997,159.586 388.599,159.363 388.172,159.363C387.917,159.363 387.668,159.443 387.46,159.59C386.869,160 386.709,160.817 387.1,161.42Z" style="fill:rgb(38,50,56);fill-rule:nonzero;"/>
            <path d="M387.59,163.88C387.588,163.904 387.588,163.928 387.588,163.952C387.588,164.511 388.031,164.98 388.59,165.01C389.163,165.027 389.653,164.582 389.69,164.01C389.691,163.995 389.691,163.98 389.691,163.965C389.691,163.391 389.219,162.919 388.645,162.919C388.088,162.919 387.624,163.364 387.6,163.92L387.59,163.88Z" style="fill:rgb(38,50,56);fill-rule:nonzero;"/>
            <path d="M392.53,163.28L392.36,169.58L389.04,168.55L392.53,163.28Z" style="fill:rgb(242,143,143);fill-rule:nonzero;"/>
            <path d="M397.15,177.52C399.83,177.17 405.34,175.58 406.2,173.4C405.855,174.501 405.181,175.472 404.27,176.18C402.62,177.6 397.15,179.18 397.15,179.18L397.15,177.52Z" style="fill:rgb(242,143,143);fill-rule:nonzero;"/>
            <path d="M353.3,203.25L383.71,211.26L392.69,249.01L363.77,240.61L353.3,203.25Z" style="fill:rgb(245,245,245);fill-rule:nonzero;"/>
            <path d="M366.56,228.22C366.28,229 364.61,231.14 361.07,230.97L360.63,229.41L366.56,228.22Z" style="fill:rgb(224,224,224);fill-rule:nonzero;"/>
            <path d="M373.36,229.41C373.49,230.41 375.56,232.27 379.06,233.41C383.06,234.74 389.14,234.04 389.14,234.04L388.59,232.16L373.36,229.41Z" style="fill:rgb(224,224,224);fill-rule:nonzero;"/>
            <path d="M362.2,208.71L361.95,207.55C361.81,206.91 363.6,206.88 365.95,207.49L370.43,208.65C372.77,209.26 374.78,210.27 374.92,210.91L375.17,212.07L362.2,208.71Z" style="fill:rgb(224,224,224);fill-rule:nonzero;"/>
            <path d="M360.09,204.34C360.01,203.94 360.73,203.83 361.71,204.1L363.48,204.59C363.48,204.59 362.95,202.08 366.89,202.96C370.83,203.84 371.69,206.68 371.69,206.68L373.59,207.22C374.59,207.52 375.59,208.08 375.71,208.48L375.93,209.2L360.26,205.08L360.09,204.34Z" style="fill:rgb(55,71,79);fill-rule:nonzero;"/>
            <path d="M362.25,205.59C363.69,205.93 364.25,206.13 364.5,207.11C364.75,208.09 364.84,209.11 364.84,209.11L371.78,210.94C371.78,210.94 371.44,209.51 371.34,208.94C371.24,208.37 371.47,208.04 372.57,208.34L372.66,207.89L361.8,205.13L362.25,205.59Z" style="fill:rgb(55,71,79);fill-rule:nonzero;"/>
            <path d="M362,208.82L361.75,207.66C361.61,207.02 363.4,206.99 365.75,207.6L370.23,208.76C372.57,209.37 374.58,210.38 374.72,211.02L374.97,212.18L362,208.82Z" style="fill:rgb(55,71,79);fill-rule:nonzero;"/>
            <path d="M426.49,228.67L417.17,221.19C417.17,221.19 396.57,224.86 394.17,225.05C391.564,225.108 389.175,223.555 388.17,221.15C387.25,218.78 385.63,219.07 385.63,219.07L386.57,223.07C386.8,224.07 381,224.82 377.78,223.73C374.56,222.64 369.91,224.22 372.78,228.6C375.65,232.98 381.28,233.49 385.17,233.49C386.802,233.479 388.432,233.369 390.05,233.16C391.31,233 392.56,232.87 393.83,232.78C401.76,232.19 422.86,229.81 426.49,228.67Z" style="fill:rgb(255,168,167);fill-rule:nonzero;"/>
            <path d="M356.39,214.28L357.74,219.1C358,220.02 361.54,221.71 363.74,222.32C365.94,222.93 368.43,223.66 367.37,226.79C366.37,229.67 362.71,230.33 360.84,230.25C358.97,230.17 356.4,228.38 355.39,225.49C354.1,221.81 354.8,217.88 354.29,215.73C353.78,213.58 355.27,213 356.39,214.28Z" style="fill:rgb(255,168,167);fill-rule:nonzero;"/>
        </g>
    </g>
</svg>
